<svg width="256" height="256" viewBox="0 0 256 256" fill="none" xmlns="http://www.w3.org/2000/svg">
  <defs>
    <linearGradient id="bg" x1="32" y1="24" x2="224" y2="232" gradientUnits="userSpaceOnUse">
      <stop stop-color="#0F172A"></stop>
      <stop offset="0.52" stop-color="#111827"></stop>
      <stop offset="1" stop-color="#1E293B"></stop>
    </linearGradient>

    <linearGradient id="accent" x1="76" y1="104" x2="180" y2="220" gradientUnits="userSpaceOnUse">
      <stop stop-color="#38BDF8"></stop>
      <stop offset="1" stop-color="#60A5FA"></stop>
    </linearGradient>
  </defs>

  <!-- App tile -->
  <rect x="16" y="16" width="224" height="224" rx="48" fill="url(#bg)"></rect>
  <rect x="18.5" y="18.5" width="219" height="219" rx="45.5" stroke="#334155" stroke-width="5"></rect>

  <!-- Terminal window -->
  <rect x="52" y="56" width="152" height="108" rx="20" fill="#0B1220" stroke="#E5E7EB" stroke-width="8"></rect>
  <path d="M56 88H200" stroke="#334155" stroke-width="6" stroke-linecap="round"></path>

  <!-- Window controls -->
  <circle cx="78" cy="73" r="5" fill="#38BDF8"></circle>
  <circle cx="96" cy="73" r="5" fill="#64748B"></circle>
  <circle cx="114" cy="73" r="5" fill="#64748B"></circle>

  <!-- Terminal prompt -->
  <path d="M84 108L106 128L84 148" stroke="#38BDF8" stroke-width="11" stroke-linecap="round" stroke-linejoin="round"></path>

  <!-- Cursor -->
  <path d="M122 146H162" stroke="#E5E7EB" stroke-width="11" stroke-linecap="round"></path>

  <!-- Session switch arrows -->
  <path d="M75 192H158" stroke="url(#accent)" stroke-width="10" stroke-linecap="round"></path>
  <path d="M154 180L170 192L154 204" stroke="#60A5FA" stroke-width="10" stroke-linecap="round" stroke-linejoin="round"></path>

  <path d="M181 212H98" stroke="url(#accent)" stroke-width="10" stroke-linecap="round"></path>
  <path d="M102 200L86 212L102 224" stroke="#38BDF8" stroke-width="10" stroke-linecap="round" stroke-linejoin="round"></path>
</svg>